<svg xmlns="http://www.w3.org/2000/svg" viewBox="0 0 900 520" font-family="'Noto Sans KR', Pretendard, sans-serif">
<rect width="900" height="520" fill="#ffffff" rx="8"/>
<text x="450.0" y="34" text-anchor="middle" font-size="22" font-weight="700" fill="#222">오픈소스 LLM의 밀그램 복종 - 최대 전압 도달 횟수 (30회 중)</text>
<text x="450.0" y="56" text-anchor="middle" font-size="14" fill="#666">11개 모델 x 8개 조건, 2,640회 실행 (Milgram-style, Table 1)</text>
<text x="251.0" y="110" text-anchor="middle" font-size="11" fill="#666">DC NS FB</text>
<text x="333.0" y="110" text-anchor="middle" font-size="11" fill="#666">DC NS NF</text>
<text x="415.0" y="110" text-anchor="middle" font-size="11" fill="#666">DC WS FB</text>
<text x="497.0" y="110" text-anchor="middle" font-size="11" fill="#666">DC WS NF</text>
<text x="579.0" y="110" text-anchor="middle" font-size="11" fill="#666">PC NS FB</text>
<text x="661.0" y="110" text-anchor="middle" font-size="11" fill="#666">PC NS NF</text>
<text x="743.0" y="110" text-anchor="middle" font-size="11" fill="#666">PC WS FB</text>
<text x="825.0" y="110" text-anchor="middle" font-size="11" fill="#666">PC WS NF</text>
<text x="200" y="138.5" text-anchor="end" font-size="13" font-weight="700" fill="#333">gemma-3n-E4B</text>
<rect x="210" y="118" width="80" height="31" fill="#c62828" rx="2"/>
<text x="250.0" y="137.5" text-anchor="middle" font-size="12" font-weight="700" fill="#fff">30</text>
<rect x="292" y="118" width="80" height="31" fill="#c62828" rx="2"/>
<text x="332.0" y="137.5" text-anchor="middle" font-size="12" font-weight="700" fill="#fff">30</text>
<rect x="374" y="118" width="80" height="31" fill="#c62828" rx="2"/>
<text x="414.0" y="137.5" text-anchor="middle" font-size="12" font-weight="700" fill="#fff">30</text>
<rect x="456" y="118" width="80" height="31" fill="#c93228" rx="2"/>
<text x="496.0" y="137.5" text-anchor="middle" font-size="12" font-weight="700" fill="#fff">29</text>
<rect x="538" y="118" width="80" height="31" fill="#cf4828" rx="2"/>
<text x="578.0" y="137.5" text-anchor="middle" font-size="12" font-weight="700" fill="#fff">27</text>
<rect x="620" y="118" width="80" height="31" fill="#f5c828" rx="2"/>
<text x="660.0" y="137.5" text-anchor="middle" font-size="12" font-weight="700" fill="#222">15</text>
<rect x="702" y="118" width="80" height="31" fill="#cf4828" rx="2"/>
<text x="742.0" y="137.5" text-anchor="middle" font-size="12" font-weight="700" fill="#fff">27</text>
<rect x="784" y="118" width="80" height="31" fill="#e7c328" rx="2"/>
<text x="824.0" y="137.5" text-anchor="middle" font-size="12" font-weight="700" fill="#222">14</text>
<text x="200" y="171.5" text-anchor="end" font-size="13" font-weight="700" fill="#333">LFM2-24B</text>
<rect x="210" y="151" width="80" height="31" fill="#c62828" rx="2"/>
<text x="250.0" y="170.5" text-anchor="middle" font-size="12" font-weight="700" fill="#fff">30</text>
<rect x="292" y="151" width="80" height="31" fill="#c93228" rx="2"/>
<text x="332.0" y="170.5" text-anchor="middle" font-size="12" font-weight="700" fill="#fff">29</text>
<rect x="374" y="151" width="80" height="31" fill="#c93228" rx="2"/>
<text x="414.0" y="170.5" text-anchor="middle" font-size="12" font-weight="700" fill="#fff">29</text>
<rect x="456" y="151" width="80" height="31" fill="#c93228" rx="2"/>
<text x="496.0" y="170.5" text-anchor="middle" font-size="12" font-weight="700" fill="#fff">29</text>
<rect x="538" y="151" width="80" height="31" fill="#c62828" rx="2"/>
<text x="578.0" y="170.5" text-anchor="middle" font-size="12" font-weight="700" fill="#fff">30</text>
<rect x="620" y="151" width="80" height="31" fill="#cc3d28" rx="2"/>
<text x="660.0" y="170.5" text-anchor="middle" font-size="12" font-weight="700" fill="#fff">28</text>
<rect x="702" y="151" width="80" height="31" fill="#c93228" rx="2"/>
<text x="742.0" y="170.5" text-anchor="middle" font-size="12" font-weight="700" fill="#fff">29</text>
<rect x="784" y="151" width="80" height="31" fill="#d25228" rx="2"/>
<text x="824.0" y="170.5" text-anchor="middle" font-size="12" font-weight="700" fill="#fff">26</text>
<text x="200" y="204.5" text-anchor="end" font-size="13" font-weight="700" fill="#333">gpt-oss-20b</text>
<rect x="210" y="184" width="80" height="31" fill="#c93228" rx="2"/>
<text x="250.0" y="203.5" text-anchor="middle" font-size="12" font-weight="700" fill="#fff">29</text>
<rect x="292" y="184" width="80" height="31" fill="#e59228" rx="2"/>
<text x="332.0" y="203.5" text-anchor="middle" font-size="12" font-weight="700" fill="#fff">20</text>
<rect x="374" y="184" width="80" height="31" fill="#d25228" rx="2"/>
<text x="414.0" y="203.5" text-anchor="middle" font-size="12" font-weight="700" fill="#fff">26</text>
<rect x="456" y="184" width="80" height="31" fill="#d86728" rx="2"/>
<text x="496.0" y="203.5" text-anchor="middle" font-size="12" font-weight="700" fill="#fff">24</text>
<rect x="538" y="184" width="80" height="31" fill="#d55d28" rx="2"/>
<text x="578.0" y="203.5" text-anchor="middle" font-size="12" font-weight="700" fill="#fff">25</text>
<rect x="620" y="184" width="80" height="31" fill="#e59228" rx="2"/>
<text x="660.0" y="203.5" text-anchor="middle" font-size="12" font-weight="700" fill="#fff">20</text>
<rect x="702" y="184" width="80" height="31" fill="#db7228" rx="2"/>
<text x="742.0" y="203.5" text-anchor="middle" font-size="12" font-weight="700" fill="#fff">23</text>
<rect x="784" y="184" width="80" height="31" fill="#f1bd28" rx="2"/>
<text x="824.0" y="203.5" text-anchor="middle" font-size="12" font-weight="700" fill="#222">16</text>
<text x="200" y="237.5" text-anchor="end" font-size="13" font-weight="700" fill="#333">DeepSeek-V3</text>
<rect x="210" y="217" width="80" height="31" fill="#e7c328" rx="2"/>
<text x="250.0" y="236.5" text-anchor="middle" font-size="12" font-weight="700" fill="#222">14</text>
<rect x="292" y="217" width="80" height="31" fill="#eba828" rx="2"/>
<text x="332.0" y="236.5" text-anchor="middle" font-size="12" font-weight="700" fill="#222">18</text>
<rect x="374" y="217" width="80" height="31" fill="#eba828" rx="2"/>
<text x="414.0" y="236.5" text-anchor="middle" font-size="12" font-weight="700" fill="#222">18</text>
<rect x="456" y="217" width="80" height="31" fill="#f1bd28" rx="2"/>
<text x="496.0" y="236.5" text-anchor="middle" font-size="12" font-weight="700" fill="#222">16</text>
<rect x="538" y="217" width="80" height="31" fill="#558c30" rx="2"/>
<text x="578.0" y="236.5" text-anchor="middle" font-size="12" font-weight="700" fill="#222">3</text>
<rect x="620" y="217" width="80" height="31" fill="#2e7d32" rx="2"/>
<text x="660.0" y="236.5" text-anchor="middle" font-size="12" font-weight="700" fill="#fff">0</text>
<rect x="702" y="217" width="80" height="31" fill="#70962e" rx="2"/>
<text x="742.0" y="236.5" text-anchor="middle" font-size="12" font-weight="700" fill="#222">5</text>
<rect x="784" y="217" width="80" height="31" fill="#2e7d32" rx="2"/>
<text x="824.0" y="236.5" text-anchor="middle" font-size="12" font-weight="700" fill="#fff">0</text>
<text x="200" y="270.5" text-anchor="end" font-size="13" font-weight="700" fill="#333">gpt-oss-120b</text>
<rect x="210" y="250" width="80" height="31" fill="#a5aa2c" rx="2"/>
<text x="250.0" y="269.5" text-anchor="middle" font-size="12" font-weight="700" fill="#222">9</text>
<rect x="292" y="250" width="80" height="31" fill="#8aa02d" rx="2"/>
<text x="332.0" y="269.5" text-anchor="middle" font-size="12" font-weight="700" fill="#222">7</text>
<rect x="374" y="250" width="80" height="31" fill="#b2af2b" rx="2"/>
<text x="414.0" y="269.5" text-anchor="middle" font-size="12" font-weight="700" fill="#222">10</text>
<rect x="456" y="250" width="80" height="31" fill="#8aa02d" rx="2"/>
<text x="496.0" y="269.5" text-anchor="middle" font-size="12" font-weight="700" fill="#222">7</text>
<rect x="538" y="250" width="80" height="31" fill="#a5aa2c" rx="2"/>
<text x="578.0" y="269.5" text-anchor="middle" font-size="12" font-weight="700" fill="#222">9</text>
<rect x="620" y="250" width="80" height="31" fill="#3b8231" rx="2"/>
<text x="660.0" y="269.5" text-anchor="middle" font-size="12" font-weight="700" fill="#fff">1</text>
<rect x="702" y="250" width="80" height="31" fill="#e7c328" rx="2"/>
<text x="742.0" y="269.5" text-anchor="middle" font-size="12" font-weight="700" fill="#222">14</text>
<rect x="784" y="250" width="80" height="31" fill="#63912f" rx="2"/>
<text x="824.0" y="269.5" text-anchor="middle" font-size="12" font-weight="700" fill="#222">4</text>
<text x="200" y="303.5" text-anchor="end" font-size="13" font-weight="700" fill="#333">Qwen2.5-7B</text>
<rect x="210" y="283" width="80" height="31" fill="#63912f" rx="2"/>
<text x="250.0" y="302.5" text-anchor="middle" font-size="12" font-weight="700" fill="#222">4</text>
<rect x="292" y="283" width="80" height="31" fill="#3b8231" rx="2"/>
<text x="332.0" y="302.5" text-anchor="middle" font-size="12" font-weight="700" fill="#fff">1</text>
<rect x="374" y="283" width="80" height="31" fill="#98a52c" rx="2"/>
<text x="414.0" y="302.5" text-anchor="middle" font-size="12" font-weight="700" fill="#222">8</text>
<rect x="456" y="283" width="80" height="31" fill="#70962e" rx="2"/>
<text x="496.0" y="302.5" text-anchor="middle" font-size="12" font-weight="700" fill="#222">5</text>
<rect x="538" y="283" width="80" height="31" fill="#8aa02d" rx="2"/>
<text x="578.0" y="302.5" text-anchor="middle" font-size="12" font-weight="700" fill="#222">7</text>
<rect x="620" y="283" width="80" height="31" fill="#2e7d32" rx="2"/>
<text x="660.0" y="302.5" text-anchor="middle" font-size="12" font-weight="700" fill="#fff">0</text>
<rect x="702" y="283" width="80" height="31" fill="#558c30" rx="2"/>
<text x="742.0" y="302.5" text-anchor="middle" font-size="12" font-weight="700" fill="#222">3</text>
<rect x="784" y="283" width="80" height="31" fill="#2e7d32" rx="2"/>
<text x="824.0" y="302.5" text-anchor="middle" font-size="12" font-weight="700" fill="#fff">0</text>
<text x="200" y="336.5" text-anchor="end" font-size="13" font-weight="700" fill="#333">Llama-3.1-8B</text>
<rect x="210" y="316" width="80" height="31" fill="#63912f" rx="2"/>
<text x="250.0" y="335.5" text-anchor="middle" font-size="12" font-weight="700" fill="#222">4</text>
<rect x="292" y="316" width="80" height="31" fill="#2e7d32" rx="2"/>
<text x="332.0" y="335.5" text-anchor="middle" font-size="12" font-weight="700" fill="#fff">0</text>
<rect x="374" y="316" width="80" height="31" fill="#8aa02d" rx="2"/>
<text x="414.0" y="335.5" text-anchor="middle" font-size="12" font-weight="700" fill="#222">7</text>
<rect x="456" y="316" width="80" height="31" fill="#2e7d32" rx="2"/>
<text x="496.0" y="335.5" text-anchor="middle" font-size="12" font-weight="700" fill="#fff">0</text>
<rect x="538" y="316" width="80" height="31" fill="#2e7d32" rx="2"/>
<text x="578.0" y="335.5" text-anchor="middle" font-size="12" font-weight="700" fill="#fff">0</text>
<rect x="620" y="316" width="80" height="31" fill="#2e7d32" rx="2"/>
<text x="660.0" y="335.5" text-anchor="middle" font-size="12" font-weight="700" fill="#fff">0</text>
<rect x="702" y="316" width="80" height="31" fill="#2e7d32" rx="2"/>
<text x="742.0" y="335.5" text-anchor="middle" font-size="12" font-weight="700" fill="#fff">0</text>
<rect x="784" y="316" width="80" height="31" fill="#2e7d32" rx="2"/>
<text x="824.0" y="335.5" text-anchor="middle" font-size="12" font-weight="700" fill="#fff">0</text>
<text x="200" y="369.5" text-anchor="end" font-size="13" font-weight="700" fill="#333">Mistral-Small-24B</text>
<rect x="210" y="349" width="80" height="31" fill="#488730" rx="2"/>
<text x="250.0" y="368.5" text-anchor="middle" font-size="12" font-weight="700" fill="#fff">2</text>
<rect x="292" y="349" width="80" height="31" fill="#2e7d32" rx="2"/>
<text x="332.0" y="368.5" text-anchor="middle" font-size="12" font-weight="700" fill="#fff">0</text>
<rect x="374" y="349" width="80" height="31" fill="#558c30" rx="2"/>
<text x="414.0" y="368.5" text-anchor="middle" font-size="12" font-weight="700" fill="#222">3</text>
<rect x="456" y="349" width="80" height="31" fill="#2e7d32" rx="2"/>
<text x="496.0" y="368.5" text-anchor="middle" font-size="12" font-weight="700" fill="#fff">0</text>
<rect x="538" y="349" width="80" height="31" fill="#2e7d32" rx="2"/>
<text x="578.0" y="368.5" text-anchor="middle" font-size="12" font-weight="700" fill="#fff">0</text>
<rect x="620" y="349" width="80" height="31" fill="#2e7d32" rx="2"/>
<text x="660.0" y="368.5" text-anchor="middle" font-size="12" font-weight="700" fill="#fff">0</text>
<rect x="702" y="349" width="80" height="31" fill="#488730" rx="2"/>
<text x="742.0" y="368.5" text-anchor="middle" font-size="12" font-weight="700" fill="#fff">2</text>
<rect x="784" y="349" width="80" height="31" fill="#2e7d32" rx="2"/>
<text x="824.0" y="368.5" text-anchor="middle" font-size="12" font-weight="700" fill="#fff">0</text>
<text x="200" y="402.5" text-anchor="end" font-size="13" font-weight="700" fill="#333">GLM-4.5-Air</text>
<rect x="210" y="382" width="80" height="31" fill="#3b8231" rx="2"/>
<text x="250.0" y="401.5" text-anchor="middle" font-size="12" font-weight="700" fill="#fff">1</text>
<rect x="292" y="382" width="80" height="31" fill="#2e7d32" rx="2"/>
<text x="332.0" y="401.5" text-anchor="middle" font-size="12" font-weight="700" fill="#fff">0</text>
<rect x="374" y="382" width="80" height="31" fill="#3b8231" rx="2"/>
<text x="414.0" y="401.5" text-anchor="middle" font-size="12" font-weight="700" fill="#fff">1</text>
<rect x="456" y="382" width="80" height="31" fill="#2e7d32" rx="2"/>
<text x="496.0" y="401.5" text-anchor="middle" font-size="12" font-weight="700" fill="#fff">0</text>
<rect x="538" y="382" width="80" height="31" fill="#2e7d32" rx="2"/>
<text x="578.0" y="401.5" text-anchor="middle" font-size="12" font-weight="700" fill="#fff">0</text>
<rect x="620" y="382" width="80" height="31" fill="#2e7d32" rx="2"/>
<text x="660.0" y="401.5" text-anchor="middle" font-size="12" font-weight="700" fill="#fff">0</text>
<rect x="702" y="382" width="80" height="31" fill="#2e7d32" rx="2"/>
<text x="742.0" y="401.5" text-anchor="middle" font-size="12" font-weight="700" fill="#fff">0</text>
<rect x="784" y="382" width="80" height="31" fill="#3b8231" rx="2"/>
<text x="824.0" y="401.5" text-anchor="middle" font-size="12" font-weight="700" fill="#fff">1</text>
<text x="200" y="435.5" text-anchor="end" font-size="13" font-weight="700" fill="#333">MiniMax-M2.5</text>
<rect x="210" y="415" width="80" height="31" fill="#2e7d32" rx="2"/>
<text x="250.0" y="434.5" text-anchor="middle" font-size="12" font-weight="700" fill="#fff">0</text>
<rect x="292" y="415" width="80" height="31" fill="#2e7d32" rx="2"/>
<text x="332.0" y="434.5" text-anchor="middle" font-size="12" font-weight="700" fill="#fff">0</text>
<rect x="374" y="415" width="80" height="31" fill="#2e7d32" rx="2"/>
<text x="414.0" y="434.5" text-anchor="middle" font-size="12" font-weight="700" fill="#fff">0</text>
<rect x="456" y="415" width="80" height="31" fill="#2e7d32" rx="2"/>
<text x="496.0" y="434.5" text-anchor="middle" font-size="12" font-weight="700" fill="#fff">0</text>
<rect x="538" y="415" width="80" height="31" fill="#2e7d32" rx="2"/>
<text x="578.0" y="434.5" text-anchor="middle" font-size="12" font-weight="700" fill="#fff">0</text>
<rect x="620" y="415" width="80" height="31" fill="#3b8231" rx="2"/>
<text x="660.0" y="434.5" text-anchor="middle" font-size="12" font-weight="700" fill="#fff">1</text>
<rect x="702" y="415" width="80" height="31" fill="#2e7d32" rx="2"/>
<text x="742.0" y="434.5" text-anchor="middle" font-size="12" font-weight="700" fill="#fff">0</text>
<rect x="784" y="415" width="80" height="31" fill="#2e7d32" rx="2"/>
<text x="824.0" y="434.5" text-anchor="middle" font-size="12" font-weight="700" fill="#fff">0</text>
<text x="200" y="468.5" text-anchor="end" font-size="13" font-weight="700" fill="#333">Kimi-K2.5</text>
<rect x="210" y="448" width="80" height="31" fill="#2e7d32" rx="2"/>
<text x="250.0" y="467.5" text-anchor="middle" font-size="12" font-weight="700" fill="#fff">0</text>
<rect x="292" y="448" width="80" height="31" fill="#2e7d32" rx="2"/>
<text x="332.0" y="467.5" text-anchor="middle" font-size="12" font-weight="700" fill="#fff">0</text>
<rect x="374" y="448" width="80" height="31" fill="#2e7d32" rx="2"/>
<text x="414.0" y="467.5" text-anchor="middle" font-size="12" font-weight="700" fill="#fff">0</text>
<rect x="456" y="448" width="80" height="31" fill="#2e7d32" rx="2"/>
<text x="496.0" y="467.5" text-anchor="middle" font-size="12" font-weight="700" fill="#fff">0</text>
<rect x="538" y="448" width="80" height="31" fill="#2e7d32" rx="2"/>
<text x="578.0" y="467.5" text-anchor="middle" font-size="12" font-weight="700" fill="#fff">0</text>
<rect x="620" y="448" width="80" height="31" fill="#2e7d32" rx="2"/>
<text x="660.0" y="467.5" text-anchor="middle" font-size="12" font-weight="700" fill="#fff">0</text>
<rect x="702" y="448" width="80" height="31" fill="#2e7d32" rx="2"/>
<text x="742.0" y="467.5" text-anchor="middle" font-size="12" font-weight="700" fill="#fff">0</text>
<rect x="784" y="448" width="80" height="31" fill="#2e7d32" rx="2"/>
<text x="824.0" y="467.5" text-anchor="middle" font-size="12" font-weight="700" fill="#fff">0</text>
<text x="210" y="507" font-size="13" fill="#666">복종 적음</text><rect x="300" y="495" width="8" height="14" fill="#2e7d32"/><rect x="308" y="495" width="8" height="14" fill="#3b8231"/><rect x="316" y="495" width="8" height="14" fill="#488730"/><rect x="324" y="495" width="8" height="14" fill="#558c30"/><rect x="332" y="495" width="8" height="14" fill="#63912f"/><rect x="340" y="495" width="8" height="14" fill="#70962e"/><rect x="348" y="495" width="8" height="14" fill="#7d9b2e"/><rect x="356" y="495" width="8" height="14" fill="#8aa02d"/><rect x="364" y="495" width="8" height="14" fill="#98a52c"/><rect x="372" y="495" width="8" height="14" fill="#a5aa2c"/><rect x="380" y="495" width="8" height="14" fill="#b2af2b"/><rect x="388" y="495" width="8" height="14" fill="#bfb42a"/><rect x="396" y="495" width="8" height="14" fill="#cdb92a"/><rect x="404" y="495" width="8" height="14" fill="#dabe29"/><rect x="412" y="495" width="8" height="14" fill="#e7c328"/><rect x="420" y="495" width="8" height="14" fill="#f5c828"/><rect x="428" y="495" width="8" height="14" fill="#f1bd28"/><rect x="436" y="495" width="8" height="14" fill="#eeb228"/><rect x="444" y="495" width="8" height="14" fill="#eba828"/><rect x="452" y="495" width="8" height="14" fill="#e89d28"/><rect x="460" y="495" width="8" height="14" fill="#e59228"/><rect x="468" y="495" width="8" height="14" fill="#e28828"/><rect x="476" y="495" width="8" height="14" fill="#df7d28"/><rect x="484" y="495" width="8" height="14" fill="#db7228"/><rect x="492" y="495" width="8" height="14" fill="#d86728"/><rect x="500" y="495" width="8" height="14" fill="#d55d28"/><rect x="508" y="495" width="8" height="14" fill="#d25228"/><rect x="516" y="495" width="8" height="14" fill="#cf4828"/><rect x="524" y="495" width="8" height="14" fill="#cc3d28"/><rect x="532" y="495" width="8" height="14" fill="#c93228"/><rect x="540" y="495" width="8" height="14" fill="#c62828"/><text x="554" y="507" font-size="13" fill="#666">복종 많음 (30/30)</text>
<text x="450.0" y="533" text-anchor="middle" font-size="13" fill="#999">gemma-3n·LFM2는 거의 항상 최대 전압, Kimi-K2.5는 한 번도 도달 안 함.</text>
</svg>
